<svg xmlns="http://www.w3.org/2000/svg"  viewBox="0 0 60 60">
  <g fill="none" fill-rule="evenodd" stroke-linecap="round" stroke-linejoin="round" stroke-width="2" transform="translate(4 6)">
    <path fill="#BC9A67" stroke="#BC9A67" d="M24,29 L28.2,29 C28.2,29 27.6689703,37.6003063 28.2,41.9623361 C28.7310297,46.3243659 31,52 31,52 L24,52 L24,29 Z"/>
    <path fill="#9AB040" stroke="#9AB040" d="M26.9400261,28.8208765 C26.9400261,28.8208765 14.3650012,26.6394044 10.3223271,32 C10.3223271,32 13.5825006,24.3420063 22.7239543,22.68171 C22.7239543,22.68171 9.13899762,20.1175839 3.28080436,28.8208765 C3.28080436,28.8208765 6.91233402,18.0407399 21.318597,14.8601428 C21.318597,14.8601428 7.68206309,9.74220585 -5.68434189e-14,16.4177757 C-5.68434189e-14,16.4177757 8.7465193,6.77725075 20.8632435,8.8575332 C20.8632435,8.8575332 21.4050503,1.60970144 12.354962,0 C12.354962,0 24.7187658,0.510860388 27.5063934,7.33772354 C27.5063934,7.33772354 26.5539335,3.07940748 37.6214291,0.527070381 C37.6214291,0.527070381 34.0272316,5.25056413 34.2428736,9.27457211 C34.4585156,13.2985801 47.4569652,3.45272853 53.8800522,15.6848876 C53.8800522,15.6848876 40.905672,12.84863 34.1932612,16.9635122 C34.1932612,16.9635122 45.205741,18.5599509 46.6518689,24.8734976 C46.6518689,24.8734976 38.8764756,21.6585156 32.7319057,23.2372707 C32.7319057,23.2372707 39.7586921,25.5896845 40.8933917,31.7558677 L26.9400261,28.8208765 Z"/>
  </g>
</svg>
